<svg id="Layer_1" data-name="Layer 1" xmlns="http://www.w3.org/2000/svg" viewBox="0 0 378.86 147.11"><defs><style>.cls-1{fill:#13110c;}.cls-2{fill:#9dbd32;}.cls-3{fill:#608d2f;}.cls-4{fill:#fff;}.cls-5{fill:#1d1d1b;}</style></defs><path class="cls-1" d="M181,178.48l7.42-39.87c.93-4.86,1.62-9.13,2.09-13.13h3.16l-1.16,8h.16c3.32-5,8-8.53,12.9-8.53,7,0,9.65,5.81,9.65,11.91,0,12.52-8.57,26.91-20.39,26.91-3.63,0-6-1.29-7.41-1.29h-.16l-2.93,16Zm7-20.2a11.63,11.63,0,0,0,7.18,2.09c9.81,0,16.61-13.91,16.61-23.41,0-4.4-1.7-9.34-7.19-9.34-5.25,0-12.12,6.72-14.21,17.92Z" transform="translate(-31.71 -31.37)"/><path class="cls-1" d="M240.38,163.48a62.59,62.59,0,0,1,.93-10h-.16c-4.25,8-9,10.28-13.83,10.28-5.64,0-9-4.86-9-11.51,0-12.67,9-27.46,23.4-27.46a24.22,24.22,0,0,1,7.49,1l-3.94,20.37a84.08,84.08,0,0,0-1.62,17.29Zm4.94-35.32a13.35,13.35,0,0,0-4.48-.54c-10.66,0-19,11.89-19.08,23.56-.08,4.86,1.31,9.19,6.34,9.19,6,0,12.82-9,14.6-18.62Z" transform="translate(-31.71 -31.37)"/><path class="cls-1" d="M251.58,163.48l4.71-25.41a104.62,104.62,0,0,0,1.78-12.59h3c-.23,3-.54,5-1,9h.15c2.24-5,5.95-9.34,10.58-9.34.47,0,1-.15,1.39-.15l-.69,3.44a4.86,4.86,0,0,0-1.24-.14c-4.86,0-10.27,7.78-11.82,15.89l-3.55,19.3Z" transform="translate(-31.71 -31.37)"/><path class="cls-1" d="M287.42,117.35l-1.62,8.13h8.73l-.62,3h-8.73l-4.09,22a33.39,33.39,0,0,0-.78,6.37c0,2.16,1,3.45,3.33,3.45a8.37,8.37,0,0,0,2.7-.32l.23,2.7a12.78,12.78,0,0,1-3.63.54c-4.4,0-6.1-2.94-6.1-6a29.79,29.79,0,0,1,.85-6.71l4.17-22h-5.33l.54-3h5.41l1.23-6.65Z" transform="translate(-31.71 -31.37)"/><path class="cls-1" d="M294.06,163.48,299,136.83c.85-4.4,1.31-8.35,1.62-11.35h3.17l-1.08,8h.15c3.25-5,7.88-8.57,13-8.57,3.63,0,8.26,2.2,8.26,9.23a34.26,34.26,0,0,1-.69,6.13l-4.25,23.21h-3.32l4.32-23.26a32.51,32.51,0,0,0,.55-5.65c0-3.86-1.55-6.76-6.11-6.76-4.94,0-12,6.59-13.59,15.56l-3.63,20.11Z" transform="translate(-31.71 -31.37)"/><path class="cls-1" d="M350.92,160.45a18.47,18.47,0,0,1-10.12,2.78c-8.65,0-11.67-6.8-11.67-13.91,0-10.66,7.5-24.64,18.08-24.64,6.1,0,8.65,3.94,8.65,8.11,0,9.42-10.81,12.05-22.94,12a25.5,25.5,0,0,0,.31,9.27c1.31,4.18,4.17,6.26,8.11,6.26a16.16,16.16,0,0,0,8.57-2.47Zm1.6-27.58c0-3.4-2.38-5.25-5.86-5.25-5.72,0-10.78,6.18-13.1,14.21,9.66.08,19-1.55,19-8.88Z" transform="translate(-31.71 -31.37)"/><path class="cls-1" d="M358.1,163.48l4.72-25.41a106.51,106.51,0,0,0,1.77-12.59h3c-.23,3-.54,5-1,9h.16c2.24-5,5.94-9.34,10.58-9.34.46,0,1-.15,1.39-.15l-.7,3.44a4.78,4.78,0,0,0-1.23-.14c-4.87,0-10.28,7.78-11.82,15.89l-3.55,19.3Z" transform="translate(-31.71 -31.37)"/><path class="cls-1" d="M377.57,158.21a11.34,11.34,0,0,0,6.49,2.08c4.87,0,8.19-3.48,8.19-7.72,0-3.71-1.55-5.95-5-8.19-3.71-2.4-5.72-5.72-5.72-9.19,0-5.8,4.71-10.51,11.28-10.51a11.08,11.08,0,0,1,6.1,1.62l-1.24,2.86a10.5,10.5,0,0,0-5.25-1.54c-4.48,0-7.49,3.16-7.49,6.95,0,3.47,2,5.4,5,7.49,3.55,2.4,5.72,5.79,5.72,9.58,0,7.49-5.49,11.59-11.9,11.59a13,13,0,0,1-7.49-2.24Z" transform="translate(-31.71 -31.37)"/><path class="cls-2" d="M80,80.25a2.19,2.19,0,0,1-.36,0A3.13,3.13,0,0,1,77,77.36c0-1.35-.87-33.23,17.82-40.48,4.72-1.83,9-1.41,12.73,1.23,4.49,3.17,7.76,9.44,9.73,18.63a79.62,79.62,0,0,1,1.62,12.34,2.06,2.06,0,0,1-2.47,2.15,3.12,3.12,0,0,1-2.66-2.85c-.23-5.77-2.23-21.76-8.71-26.34-2.07-1.47-4.59-1.6-7.68-.4-16,6.21-15.26,36.14-15.25,36.44A2,2,0,0,1,80,80.25Z" transform="translate(-31.71 -31.37)"/><path class="cls-2" d="M120,48.89,47.67,71.27s-3.11.89-3.83,1.76-1,3.54-1,3.54L31.71,162.76l83.88,15.71,6.46-129.65A5.53,5.53,0,0,0,120,48.89Z" transform="translate(-31.71 -31.37)"/><path class="cls-3" d="M145,60a1.62,1.62,0,0,0-.5-.9,2.14,2.14,0,0,0-.79-.29L131.86,58l-8.71-8.66a2.65,2.65,0,0,0-1.1-.48l-6.46,129.66L161,168.64Z" transform="translate(-31.71 -31.37)"/><path class="cls-4" d="M90.09,120.93a27.26,27.26,0,0,0-4.36-4.6,43.54,43.54,0,0,0-4.8-3.52,31.42,31.42,0,0,1-3-2.07,14.17,14.17,0,0,1-2.07-2,7.33,7.33,0,0,1-1.19-2,5.3,5.3,0,0,1-.33-2.09A6.74,6.74,0,0,1,75,102a6.17,6.17,0,0,1,1.56-2A7.58,7.58,0,0,1,79,98.65a11.51,11.51,0,0,1,3.2-.62,21.74,21.74,0,0,1,3.72.09,24.13,24.13,0,0,1,3.39.59,26.33,26.33,0,0,1,2.94.9,24.9,24.9,0,0,1,2.34,1l5.59-16.68a17,17,0,0,0-3-1.14A26.25,26.25,0,0,0,93.27,82a34.63,34.63,0,0,0-4.58-.27,39.51,39.51,0,0,0-5.08.34,32.51,32.51,0,0,0-10.28,3.07,26.08,26.08,0,0,0-7.56,5.62,25,25,0,0,0-4.84,7.63,28.44,28.44,0,0,0-2,9.39,19.24,19.24,0,0,0,.56,5.64,18.73,18.73,0,0,0,2,4.82,22.31,22.31,0,0,0,3.18,4.15A33.06,33.06,0,0,0,68.77,126a29.51,29.51,0,0,1,3,2.49,14.4,14.4,0,0,1,2,2.34,8,8,0,0,1,1.09,2.35,8.31,8.31,0,0,1,.27,2.5,6.51,6.51,0,0,1-.56,2.42,4.91,4.91,0,0,1-1.43,1.85A5.32,5.32,0,0,1,71,141a8.1,8.1,0,0,1-3,.06,17.07,17.07,0,0,1-3.76-1,26.25,26.25,0,0,1-3.51-1.66,35,35,0,0,1-3-1.9c-.9-.64-1.7-1.26-2.34-1.8l-3.83,12.71a15.93,15.93,0,0,0,2.39,2.41,24.44,24.44,0,0,0,3.3,2.27,31.27,31.27,0,0,0,4.06,2,35.55,35.55,0,0,0,4.68,1.5l.08,0,.08,0h.09l.08,0a28.64,28.64,0,0,0,10,.54,20.52,20.52,0,0,0,8.77-3.24,19.25,19.25,0,0,0,6.38-7.34,27.54,27.54,0,0,0,2.76-11.36,20.48,20.48,0,0,0-1-7.37A20.72,20.72,0,0,0,90.09,120.93Z" transform="translate(-31.71 -31.37)"/><path class="cls-2" d="M62.42,75.85l-.36,0A2.54,2.54,0,0,1,59.91,73c.2-1.35,5-33.22,25-40.47,5-1.83,9.25-1.42,12.52,1.22,3.93,3.18,6.09,9.45,6.44,18.64a79.37,79.37,0,0,1-.55,12.33,2.53,2.53,0,1,1-5-.69c.79-5.78,1.61-21.76-4.06-26.35-1.82-1.46-4.31-1.59-7.61-.4C69.48,43.46,65,73.38,64.92,73.68A2.53,2.53,0,0,1,62.42,75.85Z" transform="translate(-31.71 -31.37)"/><path class="cls-5" d="M204.3,69.37c-2.71-1.47-4.11-2.71-4.11-4.41,0-2.17,1.94-3.56,5-3.56a16,16,0,0,1,6.66,1.47l2.47-7.59c-1.7-1-4.87-1.78-9-1.78-9.37,0-15.79,5.34-15.79,12.85,0,4.26,3,7.51,7,9.84C199.81,78,201,79.36,201,81.3s-1.63,3.63-4.65,3.63a19.49,19.49,0,0,1-8.75-2.32l-2.63,7.59c2,1.39,6.12,2.56,10.53,2.63,9.6.08,16.49-4.72,16.49-13.24C212,75,208.48,71.77,204.3,69.37Z" transform="translate(-31.71 -31.37)"/><path class="cls-5" d="M242.55,53.42c-4.73,0-8.44,2.25-11.31,5.65l-.15-.07,4.1-21.45H224.5L214.13,92.14h10.68l3.57-18.66c1.39-7,5-11.39,8.44-11.39,2.4,0,3.33,1.63,3.33,4a24.55,24.55,0,0,1-.47,4.73l-4,21.37h10.69l4.18-22.07a39.38,39.38,0,0,0,.78-7C251.3,57.06,248.12,53.42,242.55,53.42Z" transform="translate(-31.71 -31.37)"/><path class="cls-5" d="M275.45,53.42C262.6,53.42,254.08,65,254.08,78c0,8.28,5.11,14.94,14.71,14.94,12.63,0,21.14-11.3,21.14-24.54C289.93,60.7,285.44,53.42,275.45,53.42ZM270.19,84.7c-3.64,0-5.19-3.09-5.19-7,0-6.11,3.17-16.1,9-16.1,3.8,0,5,3.25,5,6.43C279,74.64,275.84,84.7,270.19,84.7Z" transform="translate(-31.71 -31.37)"/><path class="cls-5" d="M317.27,53.42c-4.26,0-8.44,2.32-11.31,6.35h-.15l.62-5.73H297c-.47,3.87-1.32,9.76-2.17,14.17l-7.43,39.1h10.68L301,91.52h.23a13,13,0,0,0,6.27,1.39c12.54,0,20.75-12.85,20.75-25.86C328.26,59.85,325.09,53.42,317.27,53.42ZM307,84.86a6.62,6.62,0,0,1-4.41-1.55l1.78-10c1.24-6.66,4.73-11.07,8.44-11.07,3.25,0,4.26,3,4.26,5.88C317.11,75,313,84.86,307,84.86Z" transform="translate(-31.71 -31.37)"/><path class="cls-5" d="M343.51,38.09a6.1,6.1,0,0,0-6.11,6.19c0,3.18,2,5.35,5,5.35h.16a6,6,0,0,0,6.27-6.2A5.08,5.08,0,0,0,343.51,38.09Z" transform="translate(-31.71 -31.37)"/><polygon class="cls-5" points="296.86 60.77 307.55 60.77 314.82 22.91 304.06 22.91 296.86 60.77"/><path class="cls-5" d="M373.71,54.2h-7.43l.38-1.78c.62-3.64,2.79-6.9,6.35-6.9a10.43,10.43,0,0,1,3.41.55l2.09-8.37a15,15,0,0,0-5.81-.93,15.87,15.87,0,0,0-10.45,3.57c-3.64,3.09-5.34,7.58-6.19,12.08l-.31,1.78h-5l-1.55,8h5l-5.65,29.89h10.68l5.65-29.89h7.36Z" transform="translate(-31.71 -31.37)"/><path class="cls-5" d="M399.42,54.27l-6.51,17c-1.55,4.1-2.32,6.5-3.17,9.06h-.16c-.15-2.48-.46-5.19-.93-9l-1.7-17H375.72L382.15,89a2.25,2.25,0,0,1-.23,1.78,18.35,18.35,0,0,1-5.81,6.43,23.15,23.15,0,0,1-6,3l2.94,9a24.37,24.37,0,0,0,10.46-5.8c4.88-4.57,9.37-11.62,14-21.22l13.09-28Z" transform="translate(-31.71 -31.37)"/></svg>