<svg id="Layer_1" data-name="Layer 1" xmlns="http://www.w3.org/2000/svg" width="57.69" height="59.1" viewBox="0 0 57.69 59.1"><defs><style>.cls-1{fill:none;}.cls-1,.cls-2{stroke:#231f20;stroke-linecap:round;stroke-linejoin:round;stroke-width:2px;}.cls-2{fill:#f28e00;}</style></defs><path class="cls-1" d="M19.72,5.63H53.9a2.79,2.79,0,0,1,2.79,2.79V48a2.79,2.79,0,0,1-2.79,2.79H3.79A2.79,2.79,0,0,1,1,48V8.42A2.79,2.79,0,0,1,3.79,5.63H7.67"/><line class="cls-1" x1="1" y1="43.62" x2="56.69" y2="43.62"/><path class="cls-1" d="M39.05,12.92A13.55,13.55,0,0,1,49.48,23.64"/><path class="cls-1" d="M22.9,23.45A13.55,13.55,0,0,1,33.31,12.91"/><rect class="cls-1" x="19.72" y="23.97" width="5.03" height="5.03"/><rect class="cls-1" x="47.19" y="23.97" width="5.03" height="5.03"/><rect class="cls-1" x="33.66" y="9.69" width="5.03" height="5.03"/><circle class="cls-1" cx="35.92" cy="26.07" r="7.17"/><polyline class="cls-1" points="33.91 33.24 31.05 38.41 40.45 38.41 37.94 32.95"/><line class="cls-1" x1="35.92" y1="38.69" x2="35.92" y2="43.62"/><line class="cls-1" x1="15.43" y1="58.1" x2="41.51" y2="58.1"/><line class="cls-1" x1="20.32" y1="53.91" x2="20.32" y2="57.78"/><line class="cls-1" x1="37.04" y1="53.91" x2="37.04" y2="57.78"/><polygon class="cls-2" points="13.45 1 16.18 5.91 16.18 39.74 10.96 39.74 10.96 5.63 13.45 1"/><line class="cls-2" x1="10.96" y1="35.15" x2="16.18" y2="35.15"/></svg>