<svg id="Layer_1" data-name="Layer 1" xmlns="http://www.w3.org/2000/svg" width="56.13" height="64.06" viewBox="0 0 56.13 64.06"><defs><style>.cls-1,.cls-2{fill:none;stroke-linecap:round;stroke-linejoin:round;}.cls-1{stroke:#231f20;stroke-width:2px;}.cls-2,.cls-3{stroke:#000;stroke-width:1.5px;}.cls-3{fill:#f28e00;stroke-miterlimit:22.93;}</style></defs><path class="cls-1" d="M24.12,59.59H4.75A3.69,3.69,0,0,1,1,56V4.63A3.7,3.7,0,0,1,4.75,1H33.87a3.7,3.7,0,0,1,3.75,3.63V28.77"/><line class="cls-1" x1="1" y1="9.27" x2="37.62" y2="9.27"/><line class="cls-1" x1="1" y1="50.06" x2="21.5" y2="50.06"/><line class="cls-1" x1="16.42" y1="5" x2="22.2" y2="5"/><path class="cls-1" d="M20.26,54.72a1,1,0,1,1-1-.92A.94.94,0,0,1,20.26,54.72Z"/><path class="cls-2" d="M19.86,37.14a9.13,9.13,0,0,1-2-.21l-.22-2.56a7.36,7.36,0,0,1-1.49-.64l-2,1.63a6.72,6.72,0,0,1-1.57-1.28,8.92,8.92,0,0,1-1.28-1.56l1.64-2A11.33,11.33,0,0,1,12.32,29l-2.57-.21a5.8,5.8,0,0,1-.28-1.92,9.16,9.16,0,0,1,.21-2l2.56-.21a7.12,7.12,0,0,1,.64-1.49l-1.63-2a6.47,6.47,0,0,1,1.28-1.56,8.84,8.84,0,0,1,1.56-1.28l2,1.63a14.85,14.85,0,0,1,1.49-.64l.21-2.56a7.07,7.07,0,0,1,2.07-.28h0"/><path class="cls-2" d="M20.26,31.85l-.4,0a4.93,4.93,0,0,1-5-5,5,5,0,0,1,5-5h0a3.7,3.7,0,0,1,.47,0"/><path class="cls-2" d="M19.75,37.14a9.16,9.16,0,0,0,2-.21L22,34.37a7.12,7.12,0,0,0,1.49-.64l2,1.63A6.47,6.47,0,0,0,27,34.08a8.49,8.49,0,0,0,1.28-1.56l-1.63-2A14.85,14.85,0,0,0,27.3,29l2.56-.21a5.8,5.8,0,0,0,.28-1.92,9.16,9.16,0,0,0-.21-2l-2.56-.21a6.63,6.63,0,0,0-.64-1.49l1.63-2a6.47,6.47,0,0,0-1.28-1.56,8.17,8.17,0,0,0-1.56-1.28l-2,1.63a16.07,16.07,0,0,0-1.5-.64l-.21-2.56a7,7,0,0,0-2.07-.28h0"/><path class="cls-2" d="M19.35,31.85l.4,0a4.93,4.93,0,0,0,5-5,5,5,0,0,0-5-5h0a3.77,3.77,0,0,0-.47,0"/><path class="cls-3" d="M55,51.6a8,8,0,0,0,.4-2.7,12.81,12.81,0,0,0-.3-2.81l-3.6-.3a9.49,9.49,0,0,0-.9-2.1l2.3-2.8a9.62,9.62,0,0,0-1.8-2.2,12.1,12.1,0,0,0-2.21-1.8l-2.8,2.3a18.94,18.94,0,0,0-2.1-.9l-.3-3.6a9.41,9.41,0,0,0-2.76-.4h-.14a9.45,9.45,0,0,0-2.76.4l-.3,3.6a18.94,18.94,0,0,0-2.1.9l-2.8-2.3a12.82,12.82,0,0,0-2.21,1.8,9.62,9.62,0,0,0-1.8,2.2l2.3,2.8a9.49,9.49,0,0,0-.9,2.1l-3.6.3a12.81,12.81,0,0,0-.3,2.81,8,8,0,0,0,.4,2.7l3.6.3a18.94,18.94,0,0,0,.9,2.1l-2.3,2.8A12.82,12.82,0,0,0,30.7,59a9.9,9.9,0,0,0,2.21,1.8l2.8-2.31a9.09,9.09,0,0,0,2.1.91l.3,3.6a12.75,12.75,0,0,0,2.66.29h.14A12.75,12.75,0,0,0,43.57,63l.3-3.6A9.09,9.09,0,0,0,46,58.5l2.8,2.31A9.47,9.47,0,0,0,51,59a12.82,12.82,0,0,0,1.8-2.21L50.48,54a18.94,18.94,0,0,0,.9-2.1Zm-14.14,4a6.84,6.84,0,1,1,6.84-6.84A6.84,6.84,0,0,1,40.84,55.64Z"/></svg>